<?xml version="1.0" standalone="no"?>
<svg xmlns:xlink="http://www.w3.org/1999/xlink" id="wave" style="transform:rotate(180deg); transition: 0.3s" viewBox="0 0 1440 260" version="1.1" xmlns="http://www.w3.org/2000/svg"><defs><linearGradient id="sw-gradient-0" x1="0" x2="0" y1="1" y2="0"><stop stop-color="rgba(32, 32, 34, 1)" offset="0%"/><stop stop-color="rgba(59, 58, 53, 1)" offset="100%"/></linearGradient></defs><path style="transform:translate(0, 0px); opacity:1" fill="url(#sw-gradient-0)" d="M0,234L80,208C160,182,320,130,480,121.3C640,113,800,147,960,173.3C1120,199,1280,217,1440,225.3C1600,234,1760,234,1920,234C2080,234,2240,234,2400,229.7C2560,225,2720,217,2880,199.3C3040,182,3200,156,3360,138.7C3520,121,3680,113,3840,112.7C4000,113,4160,121,4320,121.3C4480,121,4640,113,4800,104C4960,95,5120,87,5280,95.3C5440,104,5600,130,5760,121.3C5920,113,6080,69,6240,69.3C6400,69,6560,113,6720,112.7C6880,113,7040,69,7200,43.3C7360,17,7520,9,7680,13C7840,17,8000,35,8160,34.7C8320,35,8480,17,8640,17.3C8800,17,8960,35,9120,34.7C9280,35,9440,17,9600,30.3C9760,43,9920,87,10080,91C10240,95,10400,61,10560,47.7C10720,35,10880,43,11040,39C11200,35,11360,17,11440,8.7L11520,0L11520,260L11440,260C11360,260,11200,260,11040,260C10880,260,10720,260,10560,260C10400,260,10240,260,10080,260C9920,260,9760,260,9600,260C9440,260,9280,260,9120,260C8960,260,8800,260,8640,260C8480,260,8320,260,8160,260C8000,260,7840,260,7680,260C7520,260,7360,260,7200,260C7040,260,6880,260,6720,260C6560,260,6400,260,6240,260C6080,260,5920,260,5760,260C5600,260,5440,260,5280,260C5120,260,4960,260,4800,260C4640,260,4480,260,4320,260C4160,260,4000,260,3840,260C3680,260,3520,260,3360,260C3200,260,3040,260,2880,260C2720,260,2560,260,2400,260C2240,260,2080,260,1920,260C1760,260,1600,260,1440,260C1280,260,1120,260,960,260C800,260,640,260,480,260C320,260,160,260,80,260L0,260Z"/><defs><linearGradient id="sw-gradient-1" x1="0" x2="0" y1="1" y2="0"><stop stop-color="rgba(32, 32, 34, 1)" offset="0%"/><stop stop-color="rgba(59, 58, 53, 1)" offset="100%"/></linearGradient></defs><path style="transform:translate(0, 50px); opacity:0.9" fill="url(#sw-gradient-1)" d="M0,78L80,69.3C160,61,320,43,480,34.7C640,26,800,26,960,52C1120,78,1280,130,1440,125.7C1600,121,1760,61,1920,47.7C2080,35,2240,69,2400,69.3C2560,69,2720,35,2880,34.7C3040,35,3200,69,3360,108.3C3520,147,3680,191,3840,186.3C4000,182,4160,130,4320,121.3C4480,113,4640,147,4800,138.7C4960,130,5120,78,5280,60.7C5440,43,5600,61,5760,82.3C5920,104,6080,130,6240,143C6400,156,6560,156,6720,156C6880,156,7040,156,7200,138.7C7360,121,7520,87,7680,78C7840,69,8000,87,8160,95.3C8320,104,8480,104,8640,125.7C8800,147,8960,191,9120,173.3C9280,156,9440,78,9600,73.7C9760,69,9920,139,10080,164.7C10240,191,10400,173,10560,147.3C10720,121,10880,87,11040,78C11200,69,11360,87,11440,95.3L11520,104L11520,260L11440,260C11360,260,11200,260,11040,260C10880,260,10720,260,10560,260C10400,260,10240,260,10080,260C9920,260,9760,260,9600,260C9440,260,9280,260,9120,260C8960,260,8800,260,8640,260C8480,260,8320,260,8160,260C8000,260,7840,260,7680,260C7520,260,7360,260,7200,260C7040,260,6880,260,6720,260C6560,260,6400,260,6240,260C6080,260,5920,260,5760,260C5600,260,5440,260,5280,260C5120,260,4960,260,4800,260C4640,260,4480,260,4320,260C4160,260,4000,260,3840,260C3680,260,3520,260,3360,260C3200,260,3040,260,2880,260C2720,260,2560,260,2400,260C2240,260,2080,260,1920,260C1760,260,1600,260,1440,260C1280,260,1120,260,960,260C800,260,640,260,480,260C320,260,160,260,80,260L0,260Z"/></svg>