<?xml version="1.0" standalone="no"?>
<svg xmlns:xlink="http://www.w3.org/1999/xlink" id="wave" style="transform:rotate(180deg); transition: 0.3s" viewBox="0 0 1440 490" version="1.1" xmlns="http://www.w3.org/2000/svg"><defs><linearGradient id="sw-gradient-0" x1="0" x2="0" y1="1" y2="0"><stop stop-color="rgba(59, 58, 53, 1)" offset="0%"/><stop stop-color="rgba(32, 32, 34, 1)" offset="100%"/></linearGradient></defs><path style="transform:translate(0, 0px); opacity:1" fill="url(#sw-gradient-0)" d="M0,441L40,432.8C80,425,160,408,240,392C320,376,400,359,480,351.2C560,343,640,343,720,285.8C800,229,880,114,960,122.5C1040,131,1120,261,1200,285.8C1280,310,1360,229,1440,204.2C1520,180,1600,212,1680,212.3C1760,212,1840,180,1920,187.8C2000,196,2080,245,2160,220.5C2240,196,2320,98,2400,73.5C2480,49,2560,98,2640,98C2720,98,2800,49,2880,57.2C2960,65,3040,131,3120,138.8C3200,147,3280,98,3360,65.3C3440,33,3520,16,3600,57.2C3680,98,3760,196,3840,196C3920,196,4000,98,4080,49C4160,0,4240,0,4320,49C4400,98,4480,196,4560,269.5C4640,343,4720,392,4800,351.2C4880,310,4960,180,5040,138.8C5120,98,5200,147,5280,196C5360,245,5440,294,5520,277.7C5600,261,5680,180,5720,138.8L5760,98L5760,490L5720,490C5680,490,5600,490,5520,490C5440,490,5360,490,5280,490C5200,490,5120,490,5040,490C4960,490,4880,490,4800,490C4720,490,4640,490,4560,490C4480,490,4400,490,4320,490C4240,490,4160,490,4080,490C4000,490,3920,490,3840,490C3760,490,3680,490,3600,490C3520,490,3440,490,3360,490C3280,490,3200,490,3120,490C3040,490,2960,490,2880,490C2800,490,2720,490,2640,490C2560,490,2480,490,2400,490C2320,490,2240,490,2160,490C2080,490,2000,490,1920,490C1840,490,1760,490,1680,490C1600,490,1520,490,1440,490C1360,490,1280,490,1200,490C1120,490,1040,490,960,490C880,490,800,490,720,490C640,490,560,490,480,490C400,490,320,490,240,490C160,490,80,490,40,490L0,490Z"/><defs><linearGradient id="sw-gradient-1" x1="0" x2="0" y1="1" y2="0"><stop stop-color="rgba(59, 58, 53, 1)" offset="0%"/><stop stop-color="rgba(32, 32, 34, 1)" offset="100%"/></linearGradient></defs><path style="transform:translate(0, 50px); opacity:0.9" fill="url(#sw-gradient-1)" d="M0,294L40,310.3C80,327,160,359,240,334.8C320,310,400,229,480,236.8C560,245,640,343,720,334.8C800,327,880,212,960,187.8C1040,163,1120,229,1200,253.2C1280,278,1360,261,1440,261.3C1520,261,1600,278,1680,245C1760,212,1840,131,1920,98C2000,65,2080,82,2160,106.2C2240,131,2320,163,2400,179.7C2480,196,2560,196,2640,163.3C2720,131,2800,65,2880,98C2960,131,3040,261,3120,334.8C3200,408,3280,425,3360,416.5C3440,408,3520,376,3600,375.7C3680,376,3760,408,3840,351.2C3920,294,4000,147,4080,147C4160,147,4240,294,4320,302.2C4400,310,4480,180,4560,130.7C4640,82,4720,114,4800,106.2C4880,98,4960,49,5040,98C5120,147,5200,294,5280,326.7C5360,359,5440,278,5520,277.7C5600,278,5680,359,5720,400.2L5760,441L5760,490L5720,490C5680,490,5600,490,5520,490C5440,490,5360,490,5280,490C5200,490,5120,490,5040,490C4960,490,4880,490,4800,490C4720,490,4640,490,4560,490C4480,490,4400,490,4320,490C4240,490,4160,490,4080,490C4000,490,3920,490,3840,490C3760,490,3680,490,3600,490C3520,490,3440,490,3360,490C3280,490,3200,490,3120,490C3040,490,2960,490,2880,490C2800,490,2720,490,2640,490C2560,490,2480,490,2400,490C2320,490,2240,490,2160,490C2080,490,2000,490,1920,490C1840,490,1760,490,1680,490C1600,490,1520,490,1440,490C1360,490,1280,490,1200,490C1120,490,1040,490,960,490C880,490,800,490,720,490C640,490,560,490,480,490C400,490,320,490,240,490C160,490,80,490,40,490L0,490Z"/></svg>