<?xml version="1.0" standalone="no"?>
<svg xmlns:xlink="http://www.w3.org/1999/xlink" id="wave" style="transform:rotate(0deg); transition: 0.3s" viewBox="0 0 1440 490" version="1.1" xmlns="http://www.w3.org/2000/svg"><defs><linearGradient id="sw-gradient-0" x1="0" x2="0" y1="1" y2="0"><stop stop-color="rgba(32, 32, 34, 1)" offset="0%"/><stop stop-color="rgba(59, 58, 53, 1)" offset="100%"/></linearGradient></defs><path style="transform:translate(0, 0px); opacity:1" fill="url(#sw-gradient-0)" d="M0,147L48,163.3C96,180,192,212,288,261.3C384,310,480,376,576,367.5C672,359,768,278,864,212.3C960,147,1056,98,1152,98C1248,98,1344,147,1440,204.2C1536,261,1632,327,1728,359.3C1824,392,1920,392,2016,351.2C2112,310,2208,229,2304,236.8C2400,245,2496,343,2592,367.5C2688,392,2784,343,2880,302.2C2976,261,3072,229,3168,245C3264,261,3360,327,3456,294C3552,261,3648,131,3744,122.5C3840,114,3936,229,4032,253.2C4128,278,4224,212,4320,163.3C4416,114,4512,82,4608,81.7C4704,82,4800,114,4896,138.8C4992,163,5088,180,5184,204.2C5280,229,5376,261,5472,228.7C5568,196,5664,98,5760,89.8C5856,82,5952,163,6048,163.3C6144,163,6240,82,6336,57.2C6432,33,6528,65,6624,89.8C6720,114,6816,131,6864,138.8L6912,147L6912,490L6864,490C6816,490,6720,490,6624,490C6528,490,6432,490,6336,490C6240,490,6144,490,6048,490C5952,490,5856,490,5760,490C5664,490,5568,490,5472,490C5376,490,5280,490,5184,490C5088,490,4992,490,4896,490C4800,490,4704,490,4608,490C4512,490,4416,490,4320,490C4224,490,4128,490,4032,490C3936,490,3840,490,3744,490C3648,490,3552,490,3456,490C3360,490,3264,490,3168,490C3072,490,2976,490,2880,490C2784,490,2688,490,2592,490C2496,490,2400,490,2304,490C2208,490,2112,490,2016,490C1920,490,1824,490,1728,490C1632,490,1536,490,1440,490C1344,490,1248,490,1152,490C1056,490,960,490,864,490C768,490,672,490,576,490C480,490,384,490,288,490C192,490,96,490,48,490L0,490Z"/><defs><linearGradient id="sw-gradient-1" x1="0" x2="0" y1="1" y2="0"><stop stop-color="rgba(59, 58, 53, 1)" offset="0%"/><stop stop-color="rgba(32, 32, 34, 1)" offset="100%"/></linearGradient></defs><path style="transform:translate(0, 50px); opacity:0.9" fill="url(#sw-gradient-1)" d="M0,196L48,204.2C96,212,192,229,288,236.8C384,245,480,245,576,212.3C672,180,768,114,864,98C960,82,1056,114,1152,179.7C1248,245,1344,343,1440,343C1536,343,1632,245,1728,212.3C1824,180,1920,212,2016,228.7C2112,245,2208,245,2304,269.5C2400,294,2496,343,2592,343C2688,343,2784,294,2880,228.7C2976,163,3072,82,3168,49C3264,16,3360,33,3456,81.7C3552,131,3648,212,3744,204.2C3840,196,3936,98,4032,49C4128,0,4224,0,4320,16.3C4416,33,4512,65,4608,81.7C4704,98,4800,98,4896,89.8C4992,82,5088,65,5184,81.7C5280,98,5376,147,5472,171.5C5568,196,5664,196,5760,228.7C5856,261,5952,327,6048,294C6144,261,6240,131,6336,98C6432,65,6528,131,6624,179.7C6720,229,6816,261,6864,277.7L6912,294L6912,490L6864,490C6816,490,6720,490,6624,490C6528,490,6432,490,6336,490C6240,490,6144,490,6048,490C5952,490,5856,490,5760,490C5664,490,5568,490,5472,490C5376,490,5280,490,5184,490C5088,490,4992,490,4896,490C4800,490,4704,490,4608,490C4512,490,4416,490,4320,490C4224,490,4128,490,4032,490C3936,490,3840,490,3744,490C3648,490,3552,490,3456,490C3360,490,3264,490,3168,490C3072,490,2976,490,2880,490C2784,490,2688,490,2592,490C2496,490,2400,490,2304,490C2208,490,2112,490,2016,490C1920,490,1824,490,1728,490C1632,490,1536,490,1440,490C1344,490,1248,490,1152,490C1056,490,960,490,864,490C768,490,672,490,576,490C480,490,384,490,288,490C192,490,96,490,48,490L0,490Z"/></svg>