<?xml version="1.0" standalone="no"?>
<svg xmlns:xlink="http://www.w3.org/1999/xlink" id="wave" style="transform:rotate(180deg); transition: 0.3s" viewBox="0 0 1440 260" version="1.1" xmlns="http://www.w3.org/2000/svg"><defs><linearGradient id="sw-gradient-0" x1="0" x2="0" y1="1" y2="0"><stop stop-color="rgba(32, 32, 34, 1)" offset="0%"/><stop stop-color="rgba(59, 58, 53, 1)" offset="100%"/></linearGradient></defs><path style="transform:translate(0, 0px); opacity:1" fill="url(#sw-gradient-0)" d="M0,234L18.5,208C36.9,182,74,130,111,121.3C147.7,113,185,147,222,173.3C258.5,199,295,217,332,225.3C369.2,234,406,234,443,234C480,234,517,234,554,229.7C590.8,225,628,217,665,199.3C701.5,182,738,156,775,138.7C812.3,121,849,113,886,112.7C923.1,113,960,121,997,121.3C1033.8,121,1071,113,1108,104C1144.6,95,1182,87,1218,95.3C1255.4,104,1292,130,1329,121.3C1366.2,113,1403,69,1440,69.3C1476.9,69,1514,113,1551,112.7C1587.7,113,1625,69,1662,43.3C1698.5,17,1735,9,1772,13C1809.2,17,1846,35,1883,34.7C1920,35,1957,17,1994,17.3C2030.8,17,2068,35,2105,34.7C2141.5,35,2178,17,2215,30.3C2252.3,43,2289,87,2326,91C2363.1,95,2400,61,2437,47.7C2473.8,35,2511,43,2548,39C2584.6,35,2622,17,2640,8.7L2658.5,0L2658.5,260L2640,260C2621.5,260,2585,260,2548,260C2510.8,260,2474,260,2437,260C2400,260,2363,260,2326,260C2289.2,260,2252,260,2215,260C2178.5,260,2142,260,2105,260C2067.7,260,2031,260,1994,260C1956.9,260,1920,260,1883,260C1846.2,260,1809,260,1772,260C1735.4,260,1698,260,1662,260C1624.6,260,1588,260,1551,260C1513.8,260,1477,260,1440,260C1403.1,260,1366,260,1329,260C1292.3,260,1255,260,1218,260C1181.5,260,1145,260,1108,260C1070.8,260,1034,260,997,260C960,260,923,260,886,260C849.2,260,812,260,775,260C738.5,260,702,260,665,260C627.7,260,591,260,554,260C516.9,260,480,260,443,260C406.2,260,369,260,332,260C295.4,260,258,260,222,260C184.6,260,148,260,111,260C73.8,260,37,260,18,260L0,260Z"/><defs><linearGradient id="sw-gradient-1" x1="0" x2="0" y1="1" y2="0"><stop stop-color="rgba(32, 32, 34, 1)" offset="0%"/><stop stop-color="rgba(59, 58, 53, 1)" offset="100%"/></linearGradient></defs><path style="transform:translate(0, 50px); opacity:0.9" fill="url(#sw-gradient-1)" d="M0,78L18.5,69.3C36.9,61,74,43,111,34.7C147.7,26,185,26,222,52C258.5,78,295,130,332,125.7C369.2,121,406,61,443,47.7C480,35,517,69,554,69.3C590.8,69,628,35,665,34.7C701.5,35,738,69,775,108.3C812.3,147,849,191,886,186.3C923.1,182,960,130,997,121.3C1033.8,113,1071,147,1108,138.7C1144.6,130,1182,78,1218,60.7C1255.4,43,1292,61,1329,82.3C1366.2,104,1403,130,1440,143C1476.9,156,1514,156,1551,156C1587.7,156,1625,156,1662,138.7C1698.5,121,1735,87,1772,78C1809.2,69,1846,87,1883,95.3C1920,104,1957,104,1994,125.7C2030.8,147,2068,191,2105,173.3C2141.5,156,2178,78,2215,73.7C2252.3,69,2289,139,2326,164.7C2363.1,191,2400,173,2437,147.3C2473.8,121,2511,87,2548,78C2584.6,69,2622,87,2640,95.3L2658.5,104L2658.5,260L2640,260C2621.5,260,2585,260,2548,260C2510.8,260,2474,260,2437,260C2400,260,2363,260,2326,260C2289.2,260,2252,260,2215,260C2178.5,260,2142,260,2105,260C2067.7,260,2031,260,1994,260C1956.9,260,1920,260,1883,260C1846.2,260,1809,260,1772,260C1735.4,260,1698,260,1662,260C1624.6,260,1588,260,1551,260C1513.8,260,1477,260,1440,260C1403.1,260,1366,260,1329,260C1292.3,260,1255,260,1218,260C1181.5,260,1145,260,1108,260C1070.8,260,1034,260,997,260C960,260,923,260,886,260C849.2,260,812,260,775,260C738.5,260,702,260,665,260C627.7,260,591,260,554,260C516.9,260,480,260,443,260C406.2,260,369,260,332,260C295.4,260,258,260,222,260C184.6,260,148,260,111,260C73.8,260,37,260,18,260L0,260Z"/></svg>