<?xml version="1.0" standalone="no"?>
<svg xmlns:xlink="http://www.w3.org/1999/xlink" id="wave" style="transform:rotate(180deg); transition: 0.3s" viewBox="0 0 1440 300" version="1.1" xmlns="http://www.w3.org/2000/svg"><defs><linearGradient id="sw-gradient-0" x1="0" x2="0" y1="1" y2="0"><stop stop-color="rgba(32, 32, 34, 1)" offset="0%"/><stop stop-color="rgba(59, 58, 53, 1)" offset="100%"/></linearGradient></defs><path style="transform:translate(0, 0px); opacity:1" fill="url(#sw-gradient-0)" d="M0,270L80,240C160,210,320,150,480,140C640,130,800,170,960,200C1120,230,1280,250,1440,260C1600,270,1760,270,1920,270C2080,270,2240,270,2400,265C2560,260,2720,250,2880,230C3040,210,3200,180,3360,160C3520,140,3680,130,3840,130C4000,130,4160,140,4320,140C4480,140,4640,130,4800,120C4960,110,5120,100,5280,110C5440,120,5600,150,5760,140C5920,130,6080,80,6240,80C6400,80,6560,130,6720,130C6880,130,7040,80,7200,50C7360,20,7520,10,7680,15C7840,20,8000,40,8160,40C8320,40,8480,20,8640,20C8800,20,8960,40,9120,40C9280,40,9440,20,9600,35C9760,50,9920,100,10080,105C10240,110,10400,70,10560,55C10720,40,10880,50,11040,45C11200,40,11360,20,11440,10L11520,0L11520,300L11440,300C11360,300,11200,300,11040,300C10880,300,10720,300,10560,300C10400,300,10240,300,10080,300C9920,300,9760,300,9600,300C9440,300,9280,300,9120,300C8960,300,8800,300,8640,300C8480,300,8320,300,8160,300C8000,300,7840,300,7680,300C7520,300,7360,300,7200,300C7040,300,6880,300,6720,300C6560,300,6400,300,6240,300C6080,300,5920,300,5760,300C5600,300,5440,300,5280,300C5120,300,4960,300,4800,300C4640,300,4480,300,4320,300C4160,300,4000,300,3840,300C3680,300,3520,300,3360,300C3200,300,3040,300,2880,300C2720,300,2560,300,2400,300C2240,300,2080,300,1920,300C1760,300,1600,300,1440,300C1280,300,1120,300,960,300C800,300,640,300,480,300C320,300,160,300,80,300L0,300Z"/><defs><linearGradient id="sw-gradient-1" x1="0" x2="0" y1="1" y2="0"><stop stop-color="rgba(32, 32, 34, 1)" offset="0%"/><stop stop-color="rgba(59, 58, 53, 1)" offset="100%"/></linearGradient></defs><path style="transform:translate(0, 50px); opacity:0.9" fill="url(#sw-gradient-1)" d="M0,90L80,80C160,70,320,50,480,40C640,30,800,30,960,60C1120,90,1280,150,1440,145C1600,140,1760,70,1920,55C2080,40,2240,80,2400,80C2560,80,2720,40,2880,40C3040,40,3200,80,3360,125C3520,170,3680,220,3840,215C4000,210,4160,150,4320,140C4480,130,4640,170,4800,160C4960,150,5120,90,5280,70C5440,50,5600,70,5760,95C5920,120,6080,150,6240,165C6400,180,6560,180,6720,180C6880,180,7040,180,7200,160C7360,140,7520,100,7680,90C7840,80,8000,100,8160,110C8320,120,8480,120,8640,145C8800,170,8960,220,9120,200C9280,180,9440,90,9600,85C9760,80,9920,160,10080,190C10240,220,10400,200,10560,170C10720,140,10880,100,11040,90C11200,80,11360,100,11440,110L11520,120L11520,300L11440,300C11360,300,11200,300,11040,300C10880,300,10720,300,10560,300C10400,300,10240,300,10080,300C9920,300,9760,300,9600,300C9440,300,9280,300,9120,300C8960,300,8800,300,8640,300C8480,300,8320,300,8160,300C8000,300,7840,300,7680,300C7520,300,7360,300,7200,300C7040,300,6880,300,6720,300C6560,300,6400,300,6240,300C6080,300,5920,300,5760,300C5600,300,5440,300,5280,300C5120,300,4960,300,4800,300C4640,300,4480,300,4320,300C4160,300,4000,300,3840,300C3680,300,3520,300,3360,300C3200,300,3040,300,2880,300C2720,300,2560,300,2400,300C2240,300,2080,300,1920,300C1760,300,1600,300,1440,300C1280,300,1120,300,960,300C800,300,640,300,480,300C320,300,160,300,80,300L0,300Z"/></svg>