<?xml version="1.0" standalone="no"?>
<svg xmlns:xlink="http://www.w3.org/1999/xlink" id="wave" style="transform:rotate(180deg); transition: 0.3s" viewBox="0 0 1440 260" version="1.1" xmlns="http://www.w3.org/2000/svg"><defs><linearGradient id="sw-gradient-0" x1="0" x2="0" y1="1" y2="0"><stop stop-color="rgba(32, 32, 34, 1)" offset="0%"/><stop stop-color="rgba(59, 58, 53, 1)" offset="100%"/></linearGradient></defs><path style="transform:translate(0, 0px); opacity:1" fill="url(#sw-gradient-0)" d="M0,234L34.3,208C68.6,182,137,130,206,121.3C274.3,113,343,147,411,173.3C480,199,549,217,617,225.3C685.7,234,754,234,823,234C891.4,234,960,234,1029,229.7C1097.1,225,1166,217,1234,199.3C1302.9,182,1371,156,1440,138.7C1508.6,121,1577,113,1646,112.7C1714.3,113,1783,121,1851,121.3C1920,121,1989,113,2057,104C2125.7,95,2194,87,2263,95.3C2331.4,104,2400,130,2469,121.3C2537.1,113,2606,69,2674,69.3C2742.9,69,2811,113,2880,112.7C2948.6,113,3017,69,3086,43.3C3154.3,17,3223,9,3291,13C3360,17,3429,35,3497,34.7C3565.7,35,3634,17,3703,17.3C3771.4,17,3840,35,3909,34.7C3977.1,35,4046,17,4114,30.3C4182.9,43,4251,87,4320,91C4388.6,95,4457,61,4526,47.7C4594.3,35,4663,43,4731,39C4800,35,4869,17,4903,8.7L4937.1,0L4937.1,260L4902.9,260C4868.6,260,4800,260,4731,260C4662.9,260,4594,260,4526,260C4457.1,260,4389,260,4320,260C4251.4,260,4183,260,4114,260C4045.7,260,3977,260,3909,260C3840,260,3771,260,3703,260C3634.3,260,3566,260,3497,260C3428.6,260,3360,260,3291,260C3222.9,260,3154,260,3086,260C3017.1,260,2949,260,2880,260C2811.4,260,2743,260,2674,260C2605.7,260,2537,260,2469,260C2400,260,2331,260,2263,260C2194.3,260,2126,260,2057,260C1988.6,260,1920,260,1851,260C1782.9,260,1714,260,1646,260C1577.1,260,1509,260,1440,260C1371.4,260,1303,260,1234,260C1165.7,260,1097,260,1029,260C960,260,891,260,823,260C754.3,260,686,260,617,260C548.6,260,480,260,411,260C342.9,260,274,260,206,260C137.1,260,69,260,34,260L0,260Z"/><defs><linearGradient id="sw-gradient-1" x1="0" x2="0" y1="1" y2="0"><stop stop-color="rgba(32, 32, 34, 1)" offset="0%"/><stop stop-color="rgba(59, 58, 53, 1)" offset="100%"/></linearGradient></defs><path style="transform:translate(0, 50px); opacity:0.9" fill="url(#sw-gradient-1)" d="M0,78L34.3,69.3C68.6,61,137,43,206,34.7C274.3,26,343,26,411,52C480,78,549,130,617,125.7C685.7,121,754,61,823,47.7C891.4,35,960,69,1029,69.3C1097.1,69,1166,35,1234,34.7C1302.9,35,1371,69,1440,108.3C1508.6,147,1577,191,1646,186.3C1714.3,182,1783,130,1851,121.3C1920,113,1989,147,2057,138.7C2125.7,130,2194,78,2263,60.7C2331.4,43,2400,61,2469,82.3C2537.1,104,2606,130,2674,143C2742.9,156,2811,156,2880,156C2948.6,156,3017,156,3086,138.7C3154.3,121,3223,87,3291,78C3360,69,3429,87,3497,95.3C3565.7,104,3634,104,3703,125.7C3771.4,147,3840,191,3909,173.3C3977.1,156,4046,78,4114,73.7C4182.9,69,4251,139,4320,164.7C4388.6,191,4457,173,4526,147.3C4594.3,121,4663,87,4731,78C4800,69,4869,87,4903,95.3L4937.1,104L4937.1,260L4902.9,260C4868.6,260,4800,260,4731,260C4662.9,260,4594,260,4526,260C4457.1,260,4389,260,4320,260C4251.4,260,4183,260,4114,260C4045.7,260,3977,260,3909,260C3840,260,3771,260,3703,260C3634.3,260,3566,260,3497,260C3428.6,260,3360,260,3291,260C3222.9,260,3154,260,3086,260C3017.1,260,2949,260,2880,260C2811.4,260,2743,260,2674,260C2605.7,260,2537,260,2469,260C2400,260,2331,260,2263,260C2194.3,260,2126,260,2057,260C1988.6,260,1920,260,1851,260C1782.9,260,1714,260,1646,260C1577.1,260,1509,260,1440,260C1371.4,260,1303,260,1234,260C1165.7,260,1097,260,1029,260C960,260,891,260,823,260C754.3,260,686,260,617,260C548.6,260,480,260,411,260C342.9,260,274,260,206,260C137.1,260,69,260,34,260L0,260Z"/></svg>